<?xml version="1.0" standalone="no"?>
<!DOCTYPE svg PUBLIC "-//W3C//DTD SVG 20010904//EN"
 "http://www.w3.org/TR/2001/REC-SVG-20010904/DTD/svg10.dtd">
<svg version="1.0" xmlns="http://www.w3.org/2000/svg"
 width="64.000000pt" height="64.000000pt" viewBox="0 0 64.000000 64.000000"
 preserveAspectRatio="xMidYMid meet">

<g transform="translate(0.000000,64.000000) scale(0.100000,-0.100000)"
fill="#000000" stroke="none">
<path d="M423 594 c-15 -24 -15 -29 -2 -53 11 -20 22 -26 49 -26 27 0 38 6 49
26 13 24 13 29 -2 53 -12 18 -26 26 -47 26 -21 0 -35 -8 -47 -26z m88 -5 c18
-34 -3 -69 -41 -69 -38 0 -59 35 -41 69 16 29 66 29 82 0z"/>
<path d="M227 484 c-31 -19 -57 -42 -57 -50 0 -22 30 -29 54 -14 85 54 107 52
57 -5 -17 -20 -31 -41 -31 -48 0 -7 -15 -27 -32 -45 l-33 -31 -63 16 c-58 14
-65 14 -79 0 -26 -26 -8 -45 65 -66 91 -27 100 -27 139 11 l33 32 35 -34 c34
-33 35 -37 35 -105 0 -77 14 -109 46 -104 15 3 19 13 20 44 1 34 1 35 -3 7 -5
-36 -30 -53 -44 -31 -5 8 -9 48 -9 89 l0 76 -50 49 c-36 35 -50 57 -50 76 0
38 45 89 78 90 26 1 26 1 -8 16 -33 15 -37 14 -83 -11 -53 -29 -67 -32 -67
-13 0 7 24 27 54 45 l53 33 54 -21 c64 -24 60 -23 53 -6 -9 22 34 8 47 -16 15
-28 5 -48 -50 -102 l-50 -49 34 -40 c19 -21 36 -51 38 -66 4 -24 4 -24 6 5 1
22 -7 38 -29 59 -35 34 -37 46 -10 70 21 19 20 20 35 -32 4 -10 125 -53 153
-53 5 0 13 8 16 17 9 23 -13 38 -74 53 -41 10 -49 16 -53 40 -4 15 -4 43 -1
62 8 46 -18 68 -87 72 -30 2 -61 6 -69 10 -9 4 -39 -8 -73 -30z m225 -128 c2
-15 20 -25 66 -38 34 -10 62 -23 62 -28 0 -20 -23 -20 -89 0 -60 18 -69 24
-74 48 -5 28 11 59 24 45 4 -4 9 -17 11 -27z m-182 -66 c0 -3 -13 -19 -30 -35
l-30 -29 -74 18 c-78 18 -108 38 -88 58 8 8 29 6 78 -6 l67 -17 26 26 c24 23
27 24 38 8 7 -9 13 -20 13 -23z"/>
<path d="M63 433 c15 -2 39 -2 55 0 15 2 2 4 -28 4 -30 0 -43 -2 -27 -4z"/>
<path d="M83 363 c20 -2 54 -2 75 0 20 2 3 4 -38 4 -41 0 -58 -2 -37 -4z"/>
<path d="M412 160 c0 -14 2 -19 5 -12 2 6 2 18 0 25 -3 6 -5 1 -5 -13z"/>
</g>
</svg>
